<svg xmlns="http://www.w3.org/2000/svg" xmlns:xlink="http://www.w3.org/1999/xlink" id="processonSvg1000" viewBox="87.0 111.0 990.9628601074219 889.0" width="990.9628601074219" height="889.0"><defs id="ProcessOnDefs1001"><marker id="ProcessOnMarker1069" markerUnits="userSpaceOnUse" orient="auto" markerWidth="16.23606797749979" markerHeight="10.550836550532098" viewBox="-1.0 -1.3763819204711736 16.23606797749979 10.550836550532098" refX="-1.0" refY="3.8990363547948754"><path id="ProcessOnPath1070" d="M12.0 3.8990363547948754L0.0 7.798072709589751V0.0Z" stroke="#323232" stroke-width="2.0" fill="#323232" transform="matrix(1.0,0.0,0.0,1.0,0.0,0.0)"/></marker><marker id="ProcessOnMarker1073" markerUnits="userSpaceOnUse" orient="auto" markerWidth="16.23606797749979" markerHeight="10.550836550532098" viewBox="-1.0 -1.3763819204711736 16.23606797749979 10.550836550532098" refX="-1.0" refY="3.8990363547948754"><path id="ProcessOnPath1074" d="M12.0 3.8990363547948754L0.0 7.798072709589751V0.0Z" stroke="#323232" stroke-width="2.0" fill="#323232" transform="matrix(1.0,0.0,0.0,1.0,0.0,0.0)"/></marker></defs><g id="ProcessOnG1002"><path id="ProcessOnPath1003" d="M87.0 111.0H1077.9628601074219V1000.0H87.0V111.0Z" fill="none"/><g id="ProcessOnG1004"><g id="ProcessOnG1005" transform="matrix(1.0,0.0,0.0,1.0,107.0,131.0)" opacity="1.0"><path id="ProcessOnPath1006" d="M0.0 0.0L950.9628601074219 0.0L950.9628601074219 849.0L0.0 849.0Z" stroke="#323232" stroke-width="2.0" stroke-dasharray="none" opacity="1.0" fill="#ffffff"/></g><g id="ProcessOnG1007" transform="matrix(1.0,0.0,0.0,1.0,146.0,171.0)" opacity="1.0"><path id="ProcessOnPath1008" d="M0.0 0.0L873.0 0.0L873.0 429.0L0.0 429.0Z" stroke="#323232" stroke-width="2.0" stroke-dasharray="none" opacity="1.0" fill="#ffffff"/></g><g id="ProcessOnG1009" transform="matrix(1.0,0.0,0.0,1.0,151.86328125,730.75)" opacity="1.0"><path id="ProcessOnPath1010" d="M0.0 0.0L861.2362976074219 0.0L861.2362976074219 214.25L0.0 214.25Z" stroke="#323232" stroke-width="2.0" stroke-dasharray="none" opacity="1.0" fill="#ffffff"/></g><g id="ProcessOnG1011" transform="matrix(1.0,0.0,0.0,1.0,107.0,131.0)" opacity="1.0"><path id="ProcessOnPath1012" d="M0.0 0.0L160.0 0.0L160.0 40.0L0.0 40.0Z" stroke="#323232" stroke-width="0.0" stroke-dasharray="none" opacity="1.0" fill="none"/><g id="ProcessOnG1013" transform="matrix(1.0,0.0,0.0,1.0,0.0,7.5)"><text id="ProcessOnText1014" fill="#000000" font-weight="bold" font-style="normal" text-decoration="blink" font-family="微软雅黑" text-anchor="start" font-size="20" x="0.0" y="20.5">    App</text></g></g><g id="ProcessOnG1015" transform="matrix(1.0,0.0,0.0,1.0,146.0,171.0)" opacity="1.0"><path id="ProcessOnPath1016" d="M0.0 0.0L160.0 0.0L160.0 40.0L0.0 40.0Z" stroke="#323232" stroke-width="0.0" stroke-dasharray="none" opacity="1.0" fill="none"/><g id="ProcessOnG1017" transform="matrix(1.0,0.0,0.0,1.0,0.0,7.5)"><text id="ProcessOnText1018" fill="#000000" font-weight="bold" font-style="normal" text-decoration="blink" font-family="微软雅黑" text-anchor="start" font-size="20" x="0.0" y="20.5">    Router</text></g></g><g id="ProcessOnG1019" transform="matrix(1.0,0.0,0.0,1.0,183.0,211.0)" opacity="1.0"><path id="ProcessOnPath1020" d="M0.0 0.0L593.0 0.0L593.0 330.0L0.0 330.0Z" stroke="#323232" stroke-width="2.0" stroke-dasharray="none" opacity="1.0" fill="#ffffff"/></g><g id="ProcessOnG1021" transform="matrix(1.0,0.0,0.0,1.0,183.0,211.0)" opacity="1.0"><path id="ProcessOnPath1022" d="M0.0 0.0L236.0 0.0L236.0 41.0L0.0 41.0Z" stroke="#323232" stroke-width="0.0" stroke-dasharray="none" opacity="1.0" fill="none"/><g id="ProcessOnG1023" transform="matrix(1.0,0.0,0.0,1.0,0.0,8.0)"><text id="ProcessOnText1024" fill="#000000" font-weight="bold" font-style="normal" text-decoration="blink" font-family="微软雅黑" text-anchor="start" font-size="20" x="0.0" y="20.5">    Router View / Router</text></g></g><g id="ProcessOnG1025" transform="matrix(1.0,0.0,0.0,1.0,808.0,211.0)" opacity="1.0"><path id="ProcessOnPath1026" d="M0.0 0.0L178.0 0.0L178.0 147.0L0.0 147.0Z" stroke="#323232" stroke-width="2.0" stroke-dasharray="none" opacity="1.0" fill="#ffffff"/></g><g id="ProcessOnG1027" transform="matrix(1.0,0.0,0.0,1.0,808.0,212.0)" opacity="1.0"><path id="ProcessOnPath1028" d="M0.0 0.0L178.0 0.0L178.0 145.0L0.0 145.0Z" stroke="#323232" stroke-width="0.0" stroke-dasharray="none" opacity="1.0" fill="none"/><g id="ProcessOnG1029" transform="matrix(1.0,0.0,0.0,1.0,0.0,35.0)"><text id="ProcessOnText1030" fill="#000000" font-weight="bold" font-style="normal" text-decoration="blink" font-family="微软雅黑" text-anchor="middle" font-size="20" x="89.0" y="20.5">Router View</text><text id="ProcessOnText1031" fill="#000000" font-weight="bold" font-style="normal" text-decoration="blink" font-family="微软雅黑" text-anchor="middle" font-size="20" x="89.0" y="45.5">...</text><text id="ProcessOnText1032" fill="#000000" font-weight="bold" font-style="normal" text-decoration="blink" font-family="微软雅黑" text-anchor="middle" font-size="20" x="89.0" y="70.5">Components</text></g></g><g id="ProcessOnG1033" transform="matrix(1.0,0.0,0.0,1.0,224.0,252.0)" opacity="1.0"><path id="ProcessOnPath1034" d="M0.0 0.0L492.0 0.0L492.0 248.0L0.0 248.0Z" stroke="#323232" stroke-width="2.0" stroke-dasharray="none" opacity="1.0" fill="#ffffff"/></g><g id="ProcessOnG1035" transform="matrix(1.0,0.0,0.0,1.0,267.0,300.0)" opacity="1.0"><path id="ProcessOnPath1036" d="M0.0 0.0L55.5 0.0L55.5 162.21875L0.0 162.21875Z" stroke="#323232" stroke-width="2.0" stroke-dasharray="none" opacity="1.0" fill="#ffffff"/></g><g id="ProcessOnG1037" transform="matrix(1.0,0.0,0.0,1.0,224.0,252.0)" opacity="1.0"><path id="ProcessOnPath1038" d="M0.0 0.0L236.0 0.0L236.0 41.0L0.0 41.0Z" stroke="#323232" stroke-width="0.0" stroke-dasharray="none" opacity="1.0" fill="none"/><g id="ProcessOnG1039" transform="matrix(1.0,0.0,0.0,1.0,0.0,8.0)"><text id="ProcessOnText1040" fill="#000000" font-weight="bold" font-style="normal" text-decoration="blink" font-family="微软雅黑" text-anchor="start" font-size="20" x="0.0" y="20.5">    Components</text></g></g><g id="ProcessOnG1041" transform="matrix(1.0,0.0,0.0,1.0,808.0,386.0)" opacity="1.0"><path id="ProcessOnPath1042" d="M0.0 0.0L178.0 0.0L178.0 152.0L0.0 152.0Z" stroke="#323232" stroke-width="2.0" stroke-dasharray="none" opacity="1.0" fill="#ffffff"/></g><g id="ProcessOnG1043" transform="matrix(1.0,0.0,0.0,1.0,808.0,389.5)" opacity="1.0"><path id="ProcessOnPath1044" d="M0.0 0.0L178.0 0.0L178.0 145.0L0.0 145.0Z" stroke="#323232" stroke-width="0.0" stroke-dasharray="none" opacity="1.0" fill="none"/><g id="ProcessOnG1045" transform="matrix(1.0,0.0,0.0,1.0,0.0,47.5)"><text id="ProcessOnText1046" fill="#000000" font-weight="bold" font-style="normal" text-decoration="blink" font-family="微软雅黑" text-anchor="middle" font-size="20" x="89.0" y="20.5">Global</text><text id="ProcessOnText1047" fill="#000000" font-weight="bold" font-style="normal" text-decoration="blink" font-family="微软雅黑" text-anchor="middle" font-size="20" x="89.0" y="45.5">Components</text></g></g><g id="ProcessOnG1048" transform="matrix(1.0,0.0,0.0,1.0,270.25,301.0625)" opacity="1.0"><path id="ProcessOnPath1049" d="M0.0 0.0L52.25 0.0L52.25 162.40625L0.0 162.40625Z" stroke="#323232" stroke-width="0.0" stroke-dasharray="none" opacity="1.0" fill="none"/><g id="ProcessOnG1050" transform="matrix(1.0,0.0,0.0,1.0,0.0,43.703125)"><text id="ProcessOnText1051" fill="#000000" font-weight="bold" font-style="normal" text-decoration="blink" font-family="微软雅黑" text-anchor="middle" font-size="20" x="26.125" y="20.5">Com</text><text id="ProcessOnText1052" fill="#000000" font-weight="bold" font-style="normal" text-decoration="blink" font-family="微软雅黑" text-anchor="middle" font-size="20" x="26.125" y="45.5">pone</text><text id="ProcessOnText1053" fill="#000000" font-weight="bold" font-style="normal" text-decoration="blink" font-family="微软雅黑" text-anchor="middle" font-size="20" x="26.125" y="70.5">nt</text></g></g><g id="ProcessOnG1054" transform="matrix(1.0,0.0,0.0,1.0,624.25,299.765625)" opacity="1.0"><path id="ProcessOnPath1055" d="M0.0 0.0L52.75 0.0L52.75 162.453125L0.0 162.453125Z" stroke="#323232" stroke-width="2.0" stroke-dasharray="none" opacity="1.0" fill="#ffffff"/></g><g id="ProcessOnG1056" transform="matrix(1.0,0.0,0.0,1.0,623.75,302.3125)" opacity="1.0"><path id="ProcessOnPath1057" d="M0.0 0.0L53.75 0.0L53.75 159.90625L0.0 159.90625Z" stroke="#323232" stroke-width="0.0" stroke-dasharray="none" opacity="1.0" fill="none"/><g id="ProcessOnG1058" transform="matrix(1.0,0.0,0.0,1.0,0.0,42.453125)"><text id="ProcessOnText1059" fill="#000000" font-weight="bold" font-style="normal" text-decoration="blink" font-family="微软雅黑" text-anchor="middle" font-size="20" x="26.875" y="20.5">Com</text><text id="ProcessOnText1060" fill="#000000" font-weight="bold" font-style="normal" text-decoration="blink" font-family="微软雅黑" text-anchor="middle" font-size="20" x="26.875" y="45.5">pone</text><text id="ProcessOnText1061" fill="#000000" font-weight="bold" font-style="normal" text-decoration="blink" font-family="微软雅黑" text-anchor="middle" font-size="20" x="26.875" y="70.5">nt</text></g></g><g id="ProcessOnG1062" transform="matrix(1.0,0.0,0.0,1.0,396.5625,302.3125)" opacity="1.0"><path id="ProcessOnPath1063" d="M0.0 0.0L185.0 0.0L185.0 159.90625L0.0 159.90625Z" stroke="#323232" stroke-width="0.0" stroke-dasharray="none" opacity="1.0" fill="none"/><g id="ProcessOnG1064" transform="matrix(1.0,0.0,0.0,1.0,0.0,54.953125)"><text id="ProcessOnText1065" fill="#000000" font-weight="normal" font-style="normal" text-decoration="blink" font-family="微软雅黑" text-anchor="middle" font-size="20" x="92.5" y="20.5">Event</text><text id="ProcessOnText1066" fill="#000000" font-weight="normal" font-style="normal" text-decoration="blink" font-family="微软雅黑" text-anchor="middle" font-size="20" x="92.5" y="45.5">Props</text></g></g><g id="ProcessOnG1067"><path id="ProcessOnPath1068" d="M322.5 381.109375L373.125 381.109375L373.125 381.109375L408.5139320225002 381.109375" stroke="#323232" stroke-width="2.0" stroke-dasharray="none" fill="none" marker-end="url(#ProcessOnMarker1069)"/></g><g id="ProcessOnG1071"><path id="ProcessOnPath1072" d="M624.25 380.9921875L582.125 380.9921875L582.125 380.9921875L555.2360679774998 380.9921875" stroke="#323232" stroke-width="2.0" stroke-dasharray="none" fill="none" marker-end="url(#ProcessOnMarker1073)"/></g><g id="ProcessOnG1075" transform="matrix(1.0,0.0,0.0,1.0,444.2578125,623.5)" opacity="1.0"><path id="ProcessOnPath1076" d="M0.0 0.0L285.87109375 0.0L285.87109375 72.5L0.0 72.5Z" stroke="#323232" stroke-width="2.0" stroke-dasharray="none" opacity="1.0" fill="#ffffff"/><g id="ProcessOnG1077" transform="matrix(1.0,0.0,0.0,1.0,10.0,11.25)"><text id="ProcessOnText1078" fill="#000000" font-weight="normal" font-style="normal" text-decoration="blink" font-family="微软雅黑" text-anchor="middle" font-size="20" x="132.935546875" y="20.5">Actions</text><text id="ProcessOnText1079" fill="#000000" font-weight="normal" font-style="normal" text-decoration="blink" font-family="微软雅黑" text-anchor="middle" font-size="20" x="132.935546875" y="45.5">Getters</text></g></g><g id="ProcessOnG1080" transform="matrix(1.0,0.0,0.0,1.0,463.71484375,766.75)" opacity="1.0"><path id="ProcessOnPath1081" d="M0.0 0.0L235.69921875 0.0L235.69921875 60.57421875L0.0 60.57421875Z" stroke="#323232" stroke-width="2.0" stroke-dasharray="none" opacity="1.0" fill="#ffffff"/><g id="ProcessOnG1082" transform="matrix(1.0,0.0,0.0,1.0,10.0,5.287109375)"><text id="ProcessOnText1083" fill="#000000" font-weight="normal" font-style="normal" text-decoration="blink" font-family="微软雅黑" text-anchor="middle" font-size="20" x="107.849609375" y="20.5">Module</text><text id="ProcessOnText1084" fill="#000000" font-weight="normal" font-style="normal" text-decoration="blink" font-family="微软雅黑" text-anchor="middle" font-size="20" x="107.849609375" y="45.5">Cache</text></g></g><g id="ProcessOnG1085" transform="matrix(1.0,0.0,0.0,1.0,181.21484375,845.9296875)" opacity="1.0"><path id="ProcessOnPath1086" d="M0.0 0.0L235.69921875 0.0L235.69921875 60.57421875L0.0 60.57421875Z" stroke="#323232" stroke-width="2.0" stroke-dasharray="none" opacity="1.0" fill="#ffffff"/><g id="ProcessOnG1087" transform="matrix(1.0,0.0,0.0,1.0,10.0,5.287109375)"><text id="ProcessOnText1088" fill="#000000" font-weight="normal" font-style="normal" text-decoration="blink" font-family="微软雅黑" text-anchor="middle" font-size="20" x="107.849609375" y="20.5">Module</text><text id="ProcessOnText1089" fill="#000000" font-weight="normal" font-style="normal" text-decoration="blink" font-family="微软雅黑" text-anchor="middle" font-size="20" x="107.849609375" y="45.5">A</text></g></g><g id="ProcessOnG1090" transform="matrix(1.0,0.0,0.0,1.0,464.63182067871094,845.98095703125)" opacity="1.0"><path id="ProcessOnPath1091" d="M0.0 0.0L235.69921875 0.0L235.69921875 60.57421875L0.0 60.57421875Z" stroke="#323232" stroke-width="2.0" stroke-dasharray="none" opacity="1.0" fill="#ffffff"/><g id="ProcessOnG1092" transform="matrix(1.0,0.0,0.0,1.0,10.0,5.287109375)"><text id="ProcessOnText1093" fill="#000000" font-weight="normal" font-style="normal" text-decoration="blink" font-family="微软雅黑" text-anchor="middle" font-size="20" x="107.849609375" y="20.5">Module</text><text id="ProcessOnText1094" fill="#000000" font-weight="normal" font-style="normal" text-decoration="blink" font-family="微软雅黑" text-anchor="middle" font-size="20" x="107.849609375" y="45.5">B</text></g></g><g id="ProcessOnG1095" transform="matrix(1.0,0.0,0.0,1.0,741.322265625,847.4677734375)" opacity="1.0"><path id="ProcessOnPath1096" d="M0.0 0.0L235.69921875 0.0L235.69921875 60.57421875L0.0 60.57421875Z" stroke="#323232" stroke-width="2.0" stroke-dasharray="none" opacity="1.0" fill="#ffffff"/><g id="ProcessOnG1097" transform="matrix(1.0,0.0,0.0,1.0,10.0,5.287109375)"><text id="ProcessOnText1098" fill="#000000" font-weight="normal" font-style="normal" text-decoration="blink" font-family="微软雅黑" text-anchor="middle" font-size="20" x="107.849609375" y="20.5">Module</text><text id="ProcessOnText1099" fill="#000000" font-weight="normal" font-style="normal" text-decoration="blink" font-family="微软雅黑" text-anchor="middle" font-size="20" x="107.849609375" y="45.5">C</text></g></g><g id="ProcessOnG1100" transform="matrix(1.0,0.0,0.0,1.0,149.5,733.5)" opacity="1.0"><path id="ProcessOnPath1101" d="M0.0 0.0L160.0 0.0L160.0 40.0L0.0 40.0Z" stroke="#323232" stroke-width="0.0" stroke-dasharray="none" opacity="1.0" fill="none"/><g id="ProcessOnG1102" transform="matrix(1.0,0.0,0.0,1.0,0.0,7.5)"><text id="ProcessOnText1103" fill="#000000" font-weight="bold" font-style="normal" text-decoration="blink" font-family="微软雅黑" text-anchor="start" font-size="20" x="0.0" y="20.5">    Vuex</text></g></g></g></g></svg>